<svg version="1.2" xmlns="http://www.w3.org/2000/svg" viewBox="0 0 512 512" width="512" height="512">
	<title>cloud-svgrepo-com-svg</title>
	<style>
		.s0 { fill: #a60196 } 
	</style>
	<path id="Layer" fill-rule="evenodd" class="s0" d="m512 321.1c0 60.4-49.1 109.5-109.5 109.5h-293c-60.4 0-109.5-49.1-109.5-109.5 0-49.8 33.9-93.3 81.4-105.9 2.2-74.1 63.3-133.8 138-133.8 22.2 0 43.5 5.1 63.1 15.3 17.1 8.9 32.3 21.4 44.4 36.5 7.5-2 15.1-3 22.7-3 48.6 0 88.3 39.2 89.1 87.6 20 7.1 37.9 20 50.9 37 14.6 19.2 22.4 42.1 22.4 66.3zm-15.6 0c0-20.8-6.6-40.4-19.2-56.9-12.2-15.9-29.4-27.7-48.6-33.3l-5.9-1.7 0.3-6.1q0-0.8 0.1-1.6c0-0.7 0.1-1.5 0.1-2.1 0-40.6-33-73.6-73.6-73.6-7.8 0-15.6 1.2-23.1 3.7l-5.4 1.8-3.3-4.5c-23.4-31.7-59.3-49.9-98.4-49.9-67.5 0-122.5 55-122.5 122.5q0 0.2 0.1 0.5 0 0.7 0 1.4l0.1 6.4-6.3 1.3c-43.6 8.8-75.2 47.6-75.2 92.1 0 51.8 42.1 94 93.9 94h293c51.8 0 93.9-42.2 93.9-94zm-296.9-191.6v15.6c-26.6 0-48.3 21.6-48.3 48.3h-15.6c0-35.2 28.7-63.9 63.9-63.9z"/>
</svg>