<svg version="1.2" xmlns="http://www.w3.org/2000/svg" viewBox="0 0 470 470" width="470" height="470">
	<title>domain-registration-svgrepo-com-svg</title>
	<style>
		.s0 { fill: #a60196 } 
	</style>
	<path id="Layer" fill-rule="evenodd" class="s0" d="m470 30v300c0 4.1-3.4 7.5-7.5 7.5-4.1 0-7.5-3.4-7.5-7.5v-232.5h-440v335h440v-72.5c0-4.1 3.4-7.5 7.5-7.5 4.1 0 7.5 3.4 7.5 7.5v80c0 4.1-3.4 7.5-7.5 7.5h-455c-4.1 0-7.5-3.4-7.5-7.5v-410c0-4.1 3.4-7.5 7.5-7.5h455c4.1 0 7.5 3.4 7.5 7.5zm-455 52.5h277.5v-45h-277.5zm440 0v-45h-147.5v45zm-65.5-22.5c0 4.4-3.6 8-8 8-4.4 0-8-3.6-8-8 0-4.4 3.6-8 8-8 4.4 0 8 3.6 8 8zm-41 0c0 4.4-3.6 8-8 8-4.4 0-8-3.6-8-8 0-4.4 3.6-8 8-8 4.4 0 8 3.6 8 8zm82 0c0 4.4-3.6 8-8 8-4.4 0-8-3.6-8-8 0-4.4 3.6-8 8-8 4.4 0 8 3.6 8 8zm-289.2 162.4l-14.2-23.8-14.2 23.8c-1.4 2.3-3.8 3.6-6.4 3.6q-0.5 0-1 0c-2.9-0.4-5.4-2.5-6.2-5.3l-17.3-57.6c-1.2-4 1.1-8.1 5-9.3 4-1.2 8.2 1 9.4 5l12.4 41.3 11.9-19.9c1.3-2.3 3.8-3.6 6.4-3.6 2.7 0 5.1 1.3 6.5 3.6l11.9 19.9 12.4-41.3c1.1-4 5.3-6.2 9.3-5 4 1.2 6.2 5.3 5 9.3l-17.2 57.6c-0.9 2.8-3.3 4.9-6.3 5.3-2.9 0.4-5.8-1-7.4-3.6zm58.8-1.7l-17.2-57.6c-1.2-4 1-8.1 5-9.3 4-1.2 8.1 1 9.3 5l12.4 41.3 11.9-19.9c1.4-2.3 3.8-3.7 6.5-3.7 2.6 0 5 1.4 6.4 3.7l11.9 19.9 12.4-41.3c1.2-4 5.4-6.2 9.3-5 4 1.2 6.2 5.3 5.1 9.3l-17.3 57.6c-0.8 2.8-3.3 4.9-6.2 5.3-3 0.4-5.9-1.1-7.4-3.6l-14.2-23.8-14.3 23.8c-1.3 2.3-3.8 3.6-6.4 3.6q-0.5 0-0.9 0c-3-0.4-5.4-2.5-6.3-5.3zm173.8-57.6l-17.3 57.6c-0.8 2.8-3.3 4.9-6.2 5.3q-0.5 0-0.9 0c-2.7 0-5.1-1.3-6.5-3.6l-14.2-23.8-14.2 23.8c-1.6 2.5-4.5 3.9-7.4 3.6-3-0.4-5.4-2.5-6.3-5.3l-17.2-57.6c-1.2-4 1.1-8.1 5-9.3 4-1.2 8.2 1 9.4 5l12.3 41.3 12-19.9c1.3-2.3 3.8-3.7 6.4-3.7 2.6 0 5.1 1.4 6.4 3.7l12 19.9 12.3-41.3c1.2-4 5.4-6.2 9.4-5 3.9 1.1 6.2 5.3 5 9.3zm-237.2 145.4c0 4.2-3.4 7.5-7.5 7.5h-40c-4.1 0-7.5-3.3-7.5-7.5v-40c0-4.1 3.4-7.5 7.5-7.5h40c4.1 0 7.5 3.4 7.5 7.5zm-15-32.5h-25v25h25zm15 62.5v40c0 4.2-3.4 7.5-7.5 7.5h-40c-4.1 0-7.5-3.3-7.5-7.5v-40c0-4.1 3.4-7.5 7.5-7.5h40c4.1 0 7.5 3.4 7.5 7.5zm-15 7.5h-25v25h25zm252.5-57.5c0 4.2-3.3 7.5-7.5 7.5h-30c-4.1 0-7.5-3.3-7.5-7.5 0-4.1 3.4-7.5 7.5-7.5h30c4.2 0 7.5 3.4 7.5 7.5zm-60 0c0 4.2-3.3 7.5-7.5 7.5h-147.5c-4.1 0-7.5-3.3-7.5-7.5 0-4.1 3.4-7.5 7.5-7.5h147.5c4.2 0 7.5 3.4 7.5 7.5zm60 70c0 4.2-3.3 7.5-7.5 7.5h-30c-4.1 0-7.5-3.3-7.5-7.5 0-4.1 3.4-7.5 7.5-7.5h30c4.2 0 7.5 3.4 7.5 7.5zm-60 0c0 4.2-3.3 7.5-7.5 7.5h-147.5c-4.1 0-7.5-3.3-7.5-7.5 0-4.1 3.4-7.5 7.5-7.5h147.5c4.2 0 7.5 3.4 7.5 7.5z"/>
</svg>