<svg version="1.2" xmlns="http://www.w3.org/2000/svg" viewBox="0 0 60 60" width="60" height="60">
	<title>price-tag-svgrepo-com-svg</title>
	<style>
		.s0 { fill: #a60196 } 
	</style>
	<path id="Layer" fill-rule="evenodd" class="s0" d="m59.4 45.2c0 7.2-5.8 13-13 13-5.9 0-10.9-4-12.5-9.4l-8.8 8.8-25.1-25.2 6-6 24.5-24.4 0.8-0.8h14l11.1 11.1v14.1l-6.3 6.3c5.4 1.6 9.3 6.6 9.3 12.5zm-27.3-42l-23.3 23.2 22.4 22.4 2.3-2.3q0-0.1 0-0.3 0-0.1 0-0.2-0.1-0.1-0.1-0.2 0-0.3 0-0.6c0-7.2 5.8-13 13-13q0.3 0 0.6 0 0.1 0 0.2 0 0.1 0 0.2 0.1 0.2 0 0.3 0l6.7-6.7v-12.5l-9.9-9.9zm-7 51.6l4.6-4.6-22.3-22.4-4.6 4.6zm32.2-9.6c0-5.5-4.1-10.1-9.4-10.8q-0.3-0.1-0.6-0.1-0.1 0-0.1 0-0.4-0.1-0.9-0.1c-6 0-11 5-11 11q0 0.5 0.1 0.9 0 0.1 0 0.2 0 0.2 0.1 0.4v0.1c0.7 5.3 5.3 9.4 10.8 9.4 6.1 0 11-4.9 11-11zm-18.9-31c0-2.2 1.8-4 4-4 2.1 0 3.9 1.8 3.9 4 0 2.1-1.8 3.9-3.9 3.9-2.2 0-4-1.8-4-3.9zm2 0c0 1 0.9 1.9 2 1.9 1 0 1.9-0.9 1.9-1.9 0-1.1-0.9-2-1.9-2-1.1 0-2 0.9-2 2z"/>
</svg>