<svg version="1.2" xmlns="http://www.w3.org/2000/svg" viewBox="0 0 490 490" width="490" height="490">
	<title>transfer-svgrepo-com-svg</title>
	<style>
		.s0 { fill: #a60196 } 
	</style>
	<path id="Layer" fill-rule="evenodd" class="s0" d="m490 23.8v197.9c0 5.5-4.4 9.9-9.8 9.9h-197.9c-5.5 0-9.8-4.4-9.8-9.9v-197.9c0-5.4 4.3-9.8 9.8-9.8h197.9c5.4 0 9.8 4.4 9.8 9.8zm-197.9 58.2h178.2v-48.3h-178.2zm178.2 19.6h-178.2v110.3h178.2zm-252.7 166.6v197.9c0 5.4-4.4 9.8-9.9 9.8h-197.9c-5.4 0-9.8-4.4-9.8-9.8v-197.9c0-5.4 4.4-9.8 9.8-9.8h197.9c5.5 0 9.9 4.4 9.9 9.8zm-197.9 58.2h178.2v-48.4h-178.2zm178.2 19.7h-178.2v110.2h178.2zm234.8-47.6l35.2 35.5-14 13.9-18.3-18.6v89.3c0 5.4-4.4 9.8-9.9 9.8h-113.1v-19.7h103.3v-79.4l-18.3 18.6-14-13.9 35.2-35.5c3.7-3.7 10.2-3.7 13.9 0zm-375.3-106.9l-36.2-35.5 13.8-14 19.4 19.1v-89.7c0-5.5 4.4-9.9 9.9-9.9h113.1v19.7h-103.3v79.9l19.5-19.1 13.7 14-36.2 35.5c-1.9 1.9-4.4 2.8-6.8 2.8-2.5 0-5-0.9-6.9-2.8zm333.2-144h50.9v19.6h-50.9zm-263.7 244.9h50.9v19.7h-50.9z"/>
</svg>