<svg version="1.2" xmlns="http://www.w3.org/2000/svg" viewBox="0 0 64 64" width="64" height="64">
	<title>wordpress-svgrepo-com-svg</title>
	<style>
		.s0 { fill: #a60196 } 
	</style>
	<path id="Layer" fill-rule="evenodd" class="s0" d="m43.1 5.2c3.5 1.5 6.7 3.6 9.4 6.3 2.7 2.7 4.8 5.9 6.3 9.4 1.4 3.5 2.2 7.3 2.2 11.1 0 11.7-7.1 22.3-17.9 26.8-10.8 4.5-23.3 2-31.6-6.3-8.3-8.3-10.8-20.8-6.3-31.6 4.5-10.8 15.1-17.9 26.8-17.9 3.8 0 7.6 0.8 11.1 2.2zm9.8 9.8q-0.4-0.6-0.9-1.1-0.4-0.5-0.9-1-0.5-0.4-1-0.9h-0.2c-0.8 0-2.7 1.4-2.7 4 0 2.6 0.9 3.9 3.3 6.7q0.5 0.7 0.9 1.4 0.4 0.8 0.7 1.6 0.3 0.9 0.5 1.7 0.2 0.9 0.2 1.8l0.2-0.5q0.5-1.5 0.9-3.1 0.3-1.6 0.4-3.2 0.1-1.6 0-3.2-0.2-1.6-0.5-3.1-0.4-0.6-0.9-1.1zm-27.5-9.2q-3.2 0.8-6.1 2.4-3 1.6-5.4 3.8-2.5 2.2-4.3 5h9.4q0.4 0 0.7 0.3 0.3 0.3 0.3 0.7 0 0.4-0.3 0.7-0.3 0.3-0.7 0.3h-3.9l10.8 28.8 4.5-14.2-5.2-14.6h-1.7q-0.5 0-0.7-0.3-0.3-0.3-0.3-0.7 0-0.4 0.3-0.7 0.2-0.3 0.7-0.3h16.4q0.4 0 0.7 0.3 0.3 0.3 0.3 0.7 0 0.4-0.3 0.7-0.3 0.3-0.7 0.3h-3.8l10.8 28.8 3.7-11.5c0.1-0.6 1.6-8.6-1.6-12.3-2.6-3-3.8-4.8-3.8-8q0.1-0.8 0.3-1.6 0.2-0.8 0.6-1.5 0.4-0.8 0.9-1.4 0.6-0.6 1.3-1-1.7-1.3-3.7-2.4-1.9-1-4-1.7-2.1-0.7-4.2-1-2.2-0.4-4.4-0.4-3.3 0-6.6 0.8zm16.5 51.3q0.4-0.2 0.8-0.3 0.4-0.2 0.8-0.4 0.4-0.2 0.8-0.4 0 0 0 0 0 0 0 0 0-0.1 0-0.1 0 0 0 0l1.6-5.1q0 0 0 0-0.1-0.1-0.1-0.1 0 0 0-0.1 0 0 0 0l-11.7-31.3q-0.1 0-0.1 0 0-0.1 0-0.1 0-0.1 0-0.1 0-0.1 0-0.1h-6.7l13.8 38.4q0.4-0.1 0.8-0.3zm-21.5-0.7q0.4 0.2 0.8 0.3 0.4 0.2 0.8 0.4 0.4 0.1 0.8 0.3l2.1-6.6q0 0 0 0-0.1-0.1-0.1-0.1 0 0 0-0.1 0 0 0 0l-11.7-31.2q-0.1-0.1-0.1-0.1 0-0.1 0-0.1 0-0.1 0-0.1 0-0.1 0-0.1h-4.7q-0.6 1.1-1.1 2.4l12.4 34.6q0.4 0.2 0.8 0.4zm-14.6-17.9q0.8 3.2 2.4 6.2 1.5 2.9 3.7 5.4 2.3 2.4 5 4.3l-10.8-30.1q-0.3 0.9-0.5 1.9-0.2 0.9-0.3 1.9-0.2 1-0.2 1.9-0.1 1-0.1 2 0 3.3 0.8 6.5zm22.5 20.2q1.8 0.3 3.7 0.3 1.8 0 3.6-0.3 1.8-0.2 3.6-0.7l-7.6-21.3-6.9 21.3q1.8 0.5 3.6 0.7zm25.5-10.8c1.9-2.6 3.3-5.5 4.2-8.7 0.9-3.1 1.2-6.3 0.9-9.6-0.3-3.2-1.2-6.3-2.6-9.3q0.1 1.2 0 2.3-0.1 1.2-0.3 2.3-0.1 1.1-0.4 2.2-0.3 1.1-0.7 2.2l-8.1 25.3c2.7-1.8 5.1-4.1 7-6.7z"/>
</svg>