<svg version="1.2" xmlns="http://www.w3.org/2000/svg" viewBox="0 0 513 513" width="513" height="513">
	<title>www-svgrepo-com-svg</title>
	<style>
		.s0 { fill: #a60196 } 
	</style>
	<path id="Layer" fill-rule="evenodd" class="s0" d="m362.7 266.7v-245.4h-213.4v117.4c0 5.9-4.7 10.6-10.6 10.6h-117.4v341.4h341.4v-53.4c0-5.9 4.7-10.6 10.6-10.6 5.9 0 10.7 4.7 10.7 10.6v64c0 5.9-4.8 10.7-10.7 10.7h-362.6c-5.9 0-10.7-4.8-10.7-10.7v-362.6c0-1.5 0.3-2.8 0.8-4.1 0.3-0.7 0.8-1.2 1.2-1.8 0.3-0.5 0.6-1.2 1.1-1.7l128-128c0.7-0.6 1.5-1.1 2.4-1.5 0.3-0.3 0.6-0.6 1-0.8 1.3-0.5 2.7-0.8 4.2-0.8h234.6c5.9 0 10.7 4.8 10.7 10.7v256c0 5.9-4.8 10.6-10.7 10.6-5.9 0-10.6-4.7-10.6-10.6zm-234.7-230.3l-91.6 91.6h91.6zm85 275.5l-21.3 85.4c-1.1 4.4-4.9 7.6-9.5 8q-0.5 0-0.9 0c-4.2 0-8.1-2.5-9.8-6.4l-22.2-51.8-22.2 51.8c-1.8 4.2-5.7 6.8-10.6 6.4-4.6-0.4-8.4-3.6-9.5-8l-21.3-85.4c-1.5-5.7 2-11.5 7.7-12.9 5.6-1.5 11.5 2 12.9 7.8l13.7 54.6 19.5-45.6c3.4-7.8 16.3-7.8 19.6 0l19.6 45.6 13.6-54.6c1.4-5.8 7.1-9.2 12.9-7.8 5.8 1.4 9.2 7.2 7.8 12.9zm149.3 0l-21.3 85.4c-1.1 4.4-4.9 7.6-9.5 8q-0.4 0-0.8 0c-4.3 0-8.1-2.5-9.8-6.4l-22.2-51.8-22.2 51.8c-1.8 4.2-5.7 6.8-10.7 6.4-4.6-0.4-8.4-3.6-9.5-8l-21.3-85.4c-1.4-5.7 2-11.5 7.8-12.9 5.6-1.5 11.5 2 12.9 7.8l13.6 54.6 19.6-45.6c3.3-7.8 16.2-7.8 19.6 0l19.5 45.6 13.7-54.6c1.4-5.8 7.1-9.2 12.9-7.8 5.7 1.4 9.2 7.2 7.7 12.9zm149.4 0l-21.4 85.4c-1.1 4.4-4.9 7.6-9.4 8q-0.5 0-0.9 0c-4.2 0-8.1-2.5-9.8-6.4l-22.2-51.8-22.2 51.8c-1.8 4.2-5.7 6.8-10.7 6.4-4.5-0.4-8.3-3.6-9.4-8l-21.4-85.4c-1.4-5.7 2.1-11.5 7.8-12.9 5.6-1.5 11.5 2 12.9 7.8l13.7 54.6 19.5-45.6c3.4-7.8 16.2-7.8 19.6 0l19.5 45.6 13.7-54.6c1.4-5.8 7.1-9.2 12.9-7.8 5.8 1.4 9.2 7.2 7.8 12.9z"/>
</svg>